<?xml version="1.0" encoding="utf-8"?>
<!-- Generator: Adobe Illustrator 27.1.1, SVG Export Plug-In . SVG Version: 6.00 Build 0)  -->
<svg version="1.1" id="Layer_1" xmlns="http://www.w3.org/2000/svg" xmlns:xlink="http://www.w3.org/1999/xlink" x="0px" y="0px"
	 viewBox="0 0 792 330" style="enable-background:new 0 0 792 330;" xml:space="preserve">
<style type="text/css">
	.st0{fill:#1B94A5;}
	.st1{fill:#F48037;}
</style>
<g>
	<g>
		<g>
			<path class="st0" d="M180.6,129v29.9c-4.4,1.7-8,4.8-10.2,8.9V129H180.6z"/>
			<path class="st0" d="M229.3,162.5V201h-10.2v-29.7C223.4,169.7,227.1,166.5,229.3,162.5z"/>
			<path class="st0" d="M302.1,129v41.7c0,16.8-13.6,30.4-30.4,30.4h0c-16.8,0-30.4-13.6-30.4-30.4V129h0c5.6,0,10.2,4.6,10.2,10.2
				v31.5c0,11.1,9,20.2,20.2,20.2h0c11.1,0,20.2-9,20.2-20.2v-31.5C291.9,133.5,296.4,129,302.1,129L302.1,129z"/>
			<polygon class="st0" points="537.1,129 537.1,201 528.2,201 526.9,199.3 520.3,190.8 486.1,147.2 486.1,201 475.9,201 475.9,129 
				484.8,129 486.1,130.7 492.7,139.2 526.9,182.8 526.9,129 			"/>
			<rect x="551" y="129" class="st0" width="10.2" height="72.1"/>
			<rect x="571.4" y="129" class="st0" width="58.3" height="10.2"/>
			<rect x="637.8" y="129" class="st0" width="49.9" height="10.2"/>
			<rect x="637.8" y="190.8" class="st0" width="49.9" height="10.2"/>
			<path class="st0" d="M684.3,160.6v10.2H648v6.8c0,5.6-4.6,10.2-10.2,10.2l0,0v-27.2H684.3z"/>
			<path class="st0" d="M605.2,142.4V201H595v-42.5C595,151.7,599,145.4,605.2,142.4L605.2,142.4z"/>
			<polygon class="st0" points="766,201 751.6,201 741.4,190.8 720.8,170.3 710.5,180.7 710.5,201 700.3,201 700.3,176.6 712.9,164 
				712.9,163.8 737.6,139.2 747.7,129 762.2,129 728.1,163.1 755.8,190.8 			"/>
			<polygon class="st0" points="431.2,139.2 430.7,140.3 430.2,139.2 			"/>
			<polygon class="st0" points="467.3,201 456.2,201 451.9,190.8 430.7,140.3 431.2,139.2 430.2,139.2 430.7,140.3 409.5,190.8 
				405.2,201 394.2,201 398.4,190.8 420.1,139.2 424.4,129 437,129 441.3,139.2 463,190.8 			"/>
			<polygon class="st0" points="431.2,139.2 430.7,140.3 430.2,139.2 			"/>
			<polygon class="st0" points="386,129 386,201 375.8,201 375.8,147.5 359.5,168.3 353,160.1 369.4,139.2 375.8,131 377.3,129 			
				"/>
			<path class="st1" d="M229.3,129v24.1c0,9.5-7.7,17.1-17.1,17.1h-22.5c-5,0-9,4-9,9V201h-10.2v-23.9c0-9.5,7.7-17.1,17.1-17.1H210
				c5,0,9-4,9-9v-22H229.3z"/>
			<polygon class="st0" points="313.2,134 323.4,146.7 323.4,201 313.2,201 			"/>
			<path class="st0" d="M348.8,201c-4.7,0-8.8-2-11.6-5.3c0,0-0.1-0.1-0.1-0.1c-3.9-4.5-3.9-11.3-0.1-16c2.9-3.7,6.5-7.4,6.5-7.4
				l0,0l6.3,7.9l-2.7,3.4l-1,1.3c-0.9,1.2-1.1,2.8-0.3,4c0.8,1.2,2.1,2,3.7,2c2.5,0,4.4-2,4.4-4.4c0-0.4,0-0.8-0.2-1.2l0-0.2v0
				c-0.6-2.3-1.5-4.4-2.7-6.5c-0.8-1.5-1.8-2.9-2.8-4.3l-3.1-3.9l0,0l-21.5-27.5L313.2,129h12.4l8,10.2l17.9,22.9l0,0l0.5,0.6
				l5.8,7.3l0.3,0.4c2.7,3.3,4.6,7.2,5.6,11.4C366.2,191.5,358.8,201,348.8,201z"/>
			<polygon class="st0" points="710.5,129 710.5,163 700.3,173.2 700.3,129 			"/>
		</g>
	</g>
	<g>
		<g>
			<path class="st0" d="M129.3,31.8c0-2.8,1.9-5.3,4.7-5.9c3.3-0.8,6.6,1.2,7.4,4.5l8.4,34.6c4.5,18.4,18,32.6,36.2,38
				c18.2,5.3,37.3,0.7,51-12.4L262.8,66c2.4-2.3,6.3-2.2,8.6,0.2c2.3,2.4,2.2,6.3-0.2,8.6l-25.8,24.6
				c-16.9,16.1-40.4,21.9-62.9,15.3c-22.4-6.6-39.1-24.1-44.7-46.8l-8.4-34.6C129.4,32.8,129.3,32.3,129.3,31.8z"/>
		</g>
		<g>
			<circle class="st1" cx="200.3" cy="54.4" r="25.5"/>
		</g>
		<g>
			<path class="st0" d="M26,154.3c0-0.2,0-0.3,0-0.5c0.3-3.4,3.2-5.9,6.6-5.6l35.5,2.7c18.9,1.4,36.6-7.1,47.3-22.7
				c10.7-15.7,12.2-35.2,4-52.3l-15.4-32.1c-1.5-3-0.2-6.7,2.9-8.2c3-1.5,6.7-0.2,8.2,2.9l15.4,32.1c10.1,21.1,8.3,45.2-4.9,64.5
				c-13.2,19.3-35,29.8-58.3,28l-35.5-2.7C28.4,160.2,26,157.5,26,154.3z"/>
		</g>
		<g>
			<circle class="st1" cx="73.6" cy="99.6" r="25.5"/>
		</g>
		<g>
			<path class="st0" d="M26.8,181.9c0-3,2.2-5.6,5.3-6.1l35.3-4.8c23.2-3.1,45.6,6.1,59.8,24.6s17.5,42.5,8.6,64.1l-13.5,33
				c-1.3,3.1-4.9,4.6-8,3.3c-3.1-1.3-4.6-4.9-3.3-8l13.5-33c7.2-17.5,4.6-37-7-52c-11.6-15-29.7-22.5-48.5-19.9l-35.3,4.8
				c-3.3,0.4-6.4-1.9-6.9-5.2C26.8,182.4,26.8,182.1,26.8,181.9z"/>
		</g>
		<g>
			<circle class="st1" cx="77.5" cy="234.1" r="25.5"/>
		</g>
		<g>
			<path class="st0" d="M137,298.2c0-0.4,0-0.7,0.1-1.1l6.4-35.1c4.2-23,19.9-41.4,41.9-49.3c22-7.9,45.8-3.5,63.6,11.6l27.2,23.1
				c2.6,2.2,2.9,6,0.7,8.6c-2.2,2.6-6,2.9-8.6,0.7l-27.2-23.1c-14.5-12.3-33.8-15.8-51.6-9.4c-17.9,6.4-30.6,21.3-34,40l-6.4,35.1
				c-0.6,3.3-3.8,5.5-7.1,4.9C139.1,303.7,137,301.1,137,298.2z"/>
		</g>
		<g>
			<circle class="st1" cx="206.6" cy="271.9" r="25.5"/>
		</g>
	</g>
</g>
</svg>
